<?xml version="1.0" standalone="no"?>
<!DOCTYPE svg PUBLIC "-//W3C//DTD SVG 20010904//EN"
 "http://www.w3.org/TR/2001/REC-SVG-20010904/DTD/svg10.dtd">
<svg version="1.0" xmlns="http://www.w3.org/2000/svg"
 width="2516.000000pt" height="2000.000000pt" viewBox="0 0 2516.000000 2000.000000"
 preserveAspectRatio="xMidYMid meet">
<metadata>
Created by potrace 1.15, written by Peter Selinger 2001-2017
</metadata>
<g transform="translate(0.000000,2000.000000) scale(0.100000,-0.100000)"
fill="#000000" stroke="none">
<path d="M22750 13835 c-12 -14 -17 -107 -7 -135 3 -8 8 -47 11 -87 2 -40 9
-81 15 -92 7 -12 9 -69 6 -153 -9 -220 -14 -280 -30 -343 -9 -33 -20 -76 -25
-95 -5 -19 -16 -62 -24 -95 -29 -118 -33 -131 -43 -150 -6 -11 -18 -51 -28
-88 -10 -37 -22 -70 -27 -73 -4 -3 -8 -23 -8 -46 0 -22 -6 -52 -14 -66 -21
-40 -48 -141 -41 -152 3 -6 -1 -17 -9 -26 -9 -9 -14 -19 -11 -24 3 -4 -1 -10
-9 -13 -7 -3 -17 -26 -20 -51 -4 -25 -11 -48 -16 -51 -5 -3 -7 -12 -3 -20 3
-8 0 -15 -6 -15 -6 0 -11 -11 -11 -24 0 -14 -4 -27 -9 -30 -5 -3 -12 -25 -15
-49 -4 -23 -15 -57 -26 -75 -11 -18 -20 -39 -20 -47 0 -9 -4 -23 -10 -33 -5
-9 -28 -75 -51 -147 -22 -71 -49 -155 -59 -185 -19 -57 -33 -108 -35 -125 0
-5 -14 -32 -30 -59 -25 -44 -29 -47 -36 -28 -5 12 -17 30 -29 42 -11 11 -25
31 -31 43 -5 12 -18 36 -29 52 -11 17 -24 40 -30 53 -5 12 -14 22 -20 22 -5 0
-10 6 -10 13 0 8 -9 22 -20 32 -11 10 -20 25 -20 34 0 9 -9 32 -20 51 -46 81
-59 109 -64 135 -3 15 -17 45 -31 66 -14 21 -25 43 -25 47 0 25 -43 62 -71 62
-45 0 -57 -40 -30 -105 28 -69 44 -176 36 -238 -8 -64 -8 -70 -5 -82 5 -21
-13 -55 -29 -56 -15 0 -15 -1 0 -11 15 -10 15 -16 2 -55 -8 -24 -20 -43 -26
-43 -7 0 -21 -12 -31 -27 -11 -14 -14 -23 -8 -19 8 5 10 2 6 -8 -3 -9 -10 -16
-15 -16 -6 0 -19 -9 -31 -20 -12 -11 -28 -20 -35 -20 -7 0 -13 -4 -13 -10 0
-5 5 -10 10 -10 17 0 11 -30 -7 -37 -10 -4 -20 -10 -23 -13 -3 -4 -24 -19 -46
-33 -34 -21 -47 -24 -75 -18 -44 11 -87 30 -124 57 -16 11 -38 24 -48 27 -10
4 -16 11 -13 16 4 5 -1 16 -9 24 -8 9 -15 18 -15 21 0 4 -13 25 -30 48 -16 22
-30 49 -30 60 0 10 -4 18 -9 18 -10 0 -21 39 -26 93 -2 21 -9 63 -16 95 -6 31
-12 74 -13 94 0 21 -6 40 -13 42 -9 4 -9 12 0 36 10 25 9 33 -3 40 -12 7 -12
12 -2 22 6 6 12 28 12 47 0 19 6 42 14 50 7 9 16 37 18 63 5 39 3 45 -10 40
-9 -3 -4 7 11 23 15 17 27 34 27 40 1 14 36 55 48 55 5 0 15 7 22 15 10 12 10
18 1 29 -7 8 -8 16 -4 19 17 10 100 0 132 -16 19 -9 40 -17 47 -17 12 0 114
-159 114 -178 0 -5 7 -15 15 -22 8 -7 20 -31 26 -54 13 -48 18 -226 7 -226 -4
0 -8 8 -9 18 0 11 -2 12 -6 4 -3 -7 1 -20 9 -29 11 -15 11 -16 -5 -10 -10 4
-21 7 -23 7 -3 0 -2 5 2 12 4 7 3 8 -4 4 -33 -20 11 -43 49 -26 31 14 69 96
62 133 -3 15 -1 33 4 40 9 12 10 77 1 93 -3 5 -8 25 -12 44 -3 20 -28 66 -56
104 -27 38 -48 72 -45 76 3 4 -11 20 -30 34 -19 15 -35 32 -35 39 0 13 -89 50
-150 63 -120 25 -214 -18 -259 -119 -12 -26 -19 -52 -16 -57 3 -5 -1 -20 -8
-32 -42 -67 -56 -343 -25 -513 5 -27 11 -66 13 -85 3 -19 9 -44 14 -55 4 -11
14 -38 21 -60 7 -22 22 -53 34 -70 13 -16 26 -37 30 -45 22 -46 42 -71 103
-127 37 -35 73 -63 79 -63 7 0 20 -7 28 -16 9 -8 30 -16 48 -18 18 -2 40 -6
49 -10 26 -11 94 -2 123 17 14 9 29 17 33 17 12 0 73 57 67 62 -2 3 5 13 16
23 11 10 20 24 20 32 0 7 6 16 14 19 8 3 17 17 21 31 3 14 14 37 23 52 49 73
85 149 79 165 -3 6 2 18 9 27 7 8 17 33 22 55 4 21 12 39 17 39 5 0 24 -30 42
-67 18 -38 42 -74 53 -80 11 -7 20 -17 20 -23 0 -5 11 -23 25 -40 14 -16 36
-55 50 -85 14 -30 30 -63 35 -72 13 -24 13 -95 -1 -103 -6 -4 -8 -13 -5 -21 3
-7 1 -16 -5 -19 -14 -9 -40 -77 -35 -91 3 -7 -2 -18 -10 -24 -8 -7 -14 -21
-14 -32 0 -10 -6 -21 -12 -23 -7 -3 -14 -17 -14 -31 -2 -34 -44 -144 -55 -144
-5 0 -9 -8 -9 -19 0 -10 -7 -24 -15 -31 -8 -7 -12 -16 -10 -21 3 -4 -3 -27
-14 -51 -11 -24 -25 -61 -32 -83 -6 -22 -20 -50 -30 -63 -10 -13 -23 -40 -29
-60 -6 -20 -14 -44 -17 -52 -8 -20 -8 -20 -17 -52 -5 -16 -13 -28 -18 -28 -6
0 -8 -7 -5 -14 3 -8 -4 -34 -16 -58 -13 -24 -21 -51 -19 -60 2 -9 -4 -28 -13
-42 -15 -23 -15 -25 4 -36 12 -6 21 -18 21 -26 0 -8 -5 -12 -10 -9 -6 4 -8 11
-5 16 4 5 2 9 -3 9 -21 0 -49 -94 -42 -140 5 -31 7 -33 14 -13 4 13 5 27 2 32
-3 5 0 14 8 20 11 9 13 6 10 -20 -4 -32 -33 -89 -46 -89 -4 0 -6 -22 -4 -50 1
-27 -1 -50 -6 -50 -11 0 2 -120 17 -150 7 -14 10 -31 8 -37 -3 -7 0 -13 7 -13
6 0 9 -4 6 -9 -3 -5 8 -22 24 -40 17 -17 30 -35 30 -41 0 -5 8 -10 18 -10 10
0 22 -3 26 -7 11 -11 38 -13 87 -7 34 4 59 16 94 45 26 21 44 39 39 39 -4 0 2
10 14 23 12 13 20 26 16 29 -3 4 4 9 15 13 12 3 21 11 21 16 0 6 -6 7 -12 3
-9 -5 -9 -2 1 9 7 9 19 17 26 17 15 0 65 95 65 122 0 10 7 21 15 24 8 4 15 12
15 20 0 8 5 14 10 14 6 0 10 8 10 18 0 10 5 23 10 28 6 6 11 29 13 52 1 23 8
44 15 47 6 2 12 20 12 38 0 19 6 40 14 46 14 12 24 44 32 100 5 41 31 143 44
176 17 42 22 294 8 390 -6 44 -12 90 -13 103 -1 12 -7 28 -13 34 -7 7 -12 24
-12 39 0 15 -5 31 -10 34 -7 5 -8 11 -1 19 7 8 5 15 -8 23 -13 8 -17 20 -13
43 2 17 -2 46 -11 63 -42 89 -43 147 -3 190 12 12 20 31 18 41 -2 10 1 23 7
29 6 6 11 24 11 39 0 39 36 108 58 109 10 0 12 3 5 6 -18 7 -16 32 2 39 12 5
13 10 4 20 -8 10 -6 19 10 36 16 16 20 30 16 49 -4 18 0 32 10 43 9 9 15 22
12 29 -2 6 4 24 14 39 11 14 17 33 13 41 -3 9 4 21 18 31 12 9 17 16 11 16 -6
0 -9 9 -6 20 3 11 12 20 19 20 13 0 18 30 17 103 0 9 4 17 8 17 5 0 14 27 21
60 6 33 16 60 20 60 4 0 8 11 8 25 0 14 6 25 13 25 9 0 14 12 15 30 1 45 31
140 44 140 6 0 8 3 5 7 -4 3 -2 12 3 19 6 6 15 38 20 70 5 33 14 60 19 62 5 2
7 11 4 21 -2 10 12 65 32 122 21 57 38 121 39 142 1 21 8 42 15 47 8 4 11 15
8 24 -3 8 -2 18 2 21 15 8 34 -24 38 -63 15 -166 34 -410 48 -627 3 -44 9
-107 15 -140 18 -111 28 -270 18 -276 -7 -4 -7 -9 0 -13 5 -3 13 -39 17 -78 3
-40 16 -122 27 -183 12 -60 22 -146 22 -190 1 -74 3 -82 29 -106 50 -49 89
-19 91 69 1 31 5 63 9 70 17 25 26 72 15 78 -5 3 -7 17 -4 29 3 13 2 27 -4 30
-21 13 1 223 25 237 7 4 16 29 20 55 4 27 10 53 13 58 12 18 32 79 32 98 0 9
4 17 8 17 5 0 15 18 22 40 15 46 102 147 137 161 40 15 68 2 83 -39 7 -20 35
-59 61 -88 27 -28 49 -56 49 -62 0 -7 4 -12 10 -12 5 0 12 -11 16 -24 3 -14
15 -33 26 -43 11 -10 36 -43 55 -73 45 -71 102 -130 126 -130 10 0 26 -4 36
-9 18 -10 117 16 129 35 4 6 24 23 45 38 20 16 37 34 37 40 0 7 10 22 23 33
12 12 33 37 47 56 14 19 30 33 36 30 6 -2 14 3 17 11 4 9 13 16 22 16 8 0 15
8 15 19 0 19 122 141 140 141 14 0 12 51 -3 80 -7 14 -19 46 -26 73 -8 26 -18
50 -23 53 -4 3 -6 9 -4 13 3 4 -6 20 -19 37 -36 43 -47 20 -42 -89 l4 -88 -50
-42 c-27 -23 -60 -57 -73 -76 -13 -19 -62 -74 -109 -123 -47 -48 -83 -93 -80
-98 3 -6 -1 -10 -9 -10 -9 0 -16 -4 -16 -10 0 -5 -6 -10 -14 -10 -7 0 -19 -7
-26 -15 -15 -18 -30 -20 -30 -4 0 6 -11 20 -25 31 -14 11 -25 26 -25 34 0 7
-9 19 -20 26 -11 7 -20 17 -20 21 0 5 -11 23 -25 41 -14 18 -25 38 -25 45 0
14 -14 32 -53 71 -21 20 -25 29 -15 33 10 4 7 11 -9 25 -13 11 -23 25 -23 31
0 5 -6 14 -13 18 -8 4 -17 17 -20 27 -4 10 -10 16 -13 13 -3 -3 -18 7 -32 22
-30 31 -79 51 -124 51 -38 0 -130 -45 -161 -79 -39 -42 -95 -156 -86 -174 6
-10 4 -17 -6 -21 -15 -5 -40 -53 -37 -69 1 -4 -5 -21 -13 -37 -8 -16 -16 -46
-17 -67 -2 -21 -11 -47 -20 -57 -20 -22 -19 -24 -23 49 -1 11 -4 26 -9 33 -4
6 -2 12 3 12 14 0 14 37 1 45 -5 3 -10 24 -10 46 0 21 -3 39 -8 39 -4 0 -5 32
-2 70 3 39 2 77 -3 85 -4 8 -9 44 -10 80 -1 36 -6 65 -11 65 -5 0 -6 22 -2 49
4 29 2 52 -3 55 -6 4 -10 55 -9 114 1 136 -6 223 -21 250 -8 15 -8 22 -1 22
16 0 12 40 -5 46 -9 4 -13 13 -10 24 3 10 -1 73 -10 141 -19 153 -19 183 -2
173 9 -6 9 -4 2 7 -12 15 -14 434 -2 445 8 8 -2 130 -15 171 -5 18 -18 35 -29
38 -11 4 -17 11 -13 16 3 5 9 7 13 5 17 -11 9 43 -9 59 -11 10 -20 24 -20 32
0 18 -54 17 -70 -2z m-562 -2907 c5 -7 12 -26 14 -43 3 -16 18 -84 33 -150 21
-90 28 -150 29 -240 1 -67 6 -126 10 -133 4 -8 2 -10 -7 -6 -10 4 -14 -2 -14
-20 0 -56 -26 -193 -43 -231 -24 -52 -44 -123 -43 -145 1 -10 -5 -21 -13 -24
-7 -3 -11 -12 -8 -20 3 -8 1 -17 -5 -21 -6 -3 -11 -13 -11 -22 0 -8 -6 -29
-14 -46 -26 -61 -38 -92 -35 -92 6 0 -42 -84 -51 -90 -6 -4 -8 -10 -5 -15 3
-5 -1 -12 -8 -17 -26 -16 -69 -82 -61 -95 4 -7 3 -10 -1 -5 -5 4 -25 -8 -44
-26 -32 -30 -41 -34 -77 -30 l-41 5 -18 86 c-10 48 -19 101 -19 119 -1 17 -5
35 -9 39 -13 13 -8 36 7 31 22 -9 32 78 12 99 -9 8 -16 19 -16 23 0 13 25 61
32 61 4 0 5 7 2 15 -4 8 -1 22 5 29 7 8 13 25 15 38 1 13 6 31 9 41 4 9 9 24
12 33 4 14 8 14 23 3 16 -13 16 -12 1 6 -19 23 -17 55 5 67 8 4 17 23 21 41 4
17 13 48 21 67 23 54 48 119 58 155 12 39 29 75 37 75 5 0 9 9 9 19 0 11 8 36
19 58 10 21 28 61 40 88 12 28 26 58 32 67 5 10 9 27 9 38 0 11 5 20 11 20 5
0 9 8 7 18 -1 9 6 29 16 44 10 15 15 32 12 37 -4 5 -2 12 4 16 5 3 10 15 10
26 0 22 13 25 28 7z"/>
<path d="M17756 13471 c-10 -11 -22 -18 -27 -15 -18 11 -149 -69 -149 -91 0
-8 -69 -96 -88 -112 -8 -6 -11 -16 -8 -22 4 -5 1 -13 -6 -18 -16 -10 -27 -29
-76 -128 -38 -79 -60 -169 -42 -180 5 -3 5 -18 -1 -38 -5 -17 -9 -74 -9 -126
0 -79 5 -109 33 -195 19 -55 42 -128 52 -161 23 -78 93 -222 111 -229 8 -3 14
-13 14 -21 0 -9 11 -31 25 -49 28 -37 32 -61 12 -73 -8 -4 -21 -35 -30 -68 -9
-33 -26 -78 -37 -100 -11 -21 -20 -45 -20 -52 0 -7 -4 -13 -10 -13 -5 0 -10
-7 -10 -15 0 -9 -7 -18 -15 -21 -8 -4 -15 -13 -15 -21 0 -8 -11 -28 -25 -45
-14 -16 -25 -35 -25 -42 0 -7 -11 -23 -25 -36 -14 -13 -25 -30 -25 -37 0 -8
-11 -29 -25 -47 -14 -18 -25 -36 -25 -39 0 -3 -11 -23 -25 -43 -14 -20 -25
-47 -25 -60 0 -13 -5 -24 -11 -24 -5 0 -7 -5 -3 -11 3 -6 -7 -25 -22 -42 -30
-34 -45 -56 -80 -123 -11 -23 -28 -51 -37 -64 -8 -12 -13 -28 -11 -35 3 -7 1
-16 -5 -20 -6 -3 -11 -15 -11 -26 0 -11 -7 -22 -15 -25 -8 -4 -13 -10 -10 -14
6 -9 -105 -180 -130 -200 -8 -7 -15 -25 -15 -40 0 -16 -7 -30 -15 -34 -8 -3
-15 -12 -15 -20 0 -8 -5 -16 -10 -18 -6 -2 -12 -13 -14 -24 -6 -31 -23 -58
-92 -149 -34 -44 -59 -86 -57 -93 3 -7 -11 -27 -31 -46 -20 -18 -36 -37 -36
-43 0 -6 -15 -29 -32 -51 -18 -22 -53 -65 -78 -95 -51 -64 -70 -63 -96 4 -16
39 -36 50 -50 27 -4 -6 -3 -13 3 -15 6 -2 9 -13 6 -23 -3 -11 -9 -18 -13 -15
-20 12 -20 -17 0 -33 16 -13 22 -31 24 -75 4 -61 21 -86 61 -86 27 0 80 44 71
58 -4 6 -3 10 2 9 17 -5 89 70 133 138 23 35 45 64 48 64 4 0 23 33 41 73 19
39 53 93 76 118 23 26 51 66 63 91 11 25 27 51 36 58 8 7 15 18 15 25 0 13 48
107 59 115 16 12 95 141 129 210 9 19 22 40 28 45 7 6 14 22 18 36 3 14 17 43
31 63 14 21 24 41 21 43 -3 3 5 20 18 37 24 32 96 165 96 177 0 4 16 31 36 60
20 30 49 81 64 114 15 33 35 66 44 74 10 8 28 35 41 60 13 25 32 55 42 66 18
20 33 49 94 187 19 43 40 77 47 78 17 0 101 -47 129 -72 12 -12 31 -26 42 -32
39 -22 134 -89 168 -119 19 -17 61 -49 93 -72 32 -22 97 -76 145 -120 48 -44
95 -87 104 -95 9 -8 41 -34 71 -57 86 -65 109 -95 164 -206 50 -103 51 -105
43 -167 -12 -97 -75 -200 -123 -200 -7 0 -25 -10 -41 -23 -44 -36 -133 -88
-142 -83 -4 3 -44 -6 -87 -20 -113 -35 -231 -53 -372 -55 -120 -1 -123 -1
-142 24 -11 14 -20 30 -20 35 0 15 -50 29 -98 28 -33 -1 -42 3 -44 17 0 9 -1
23 -2 30 -2 24 -86 73 -86 49 0 -5 -13 -15 -30 -22 -32 -13 -75 -73 -65 -90 4
-6 -2 -23 -12 -38 -10 -15 -19 -31 -19 -37 -1 -5 -2 -12 -3 -15 -9 -24 -5 -81
6 -96 16 -22 60 -24 209 -10 120 11 158 4 174 -33 17 -41 88 -116 143 -151 72
-45 144 -80 166 -80 11 0 23 -4 26 -10 9 -15 88 -12 112 5 12 8 29 12 37 9 30
-12 118 41 234 140 14 12 55 62 92 111 37 50 87 112 110 138 43 49 110 165
110 191 0 7 7 19 15 26 8 7 15 19 15 27 0 8 12 35 27 61 16 26 28 49 29 52 2
12 16 47 30 73 7 16 14 35 14 43 0 23 17 16 69 -30 53 -47 80 -59 180 -76 45
-8 67 -8 74 -1 6 6 25 11 42 11 53 0 245 119 245 152 0 6 11 23 25 40 14 16
25 37 25 47 0 9 7 27 16 39 12 18 14 39 8 117 -6 91 -15 118 -29 95 -3 -5 -7
-41 -9 -80 -2 -38 -8 -76 -15 -83 -6 -8 -9 -21 -6 -29 4 -10 -16 -35 -57 -73
-66 -59 -177 -115 -231 -115 -16 0 -26 -4 -22 -10 3 -5 2 -10 -4 -10 -5 0 -13
5 -16 10 -3 6 -24 10 -47 10 -73 0 -149 54 -165 118 -3 15 -10 30 -15 33 -6 4
-6 14 0 25 16 28 49 150 62 224 6 36 13 73 16 83 4 13 -1 17 -18 17 -20 1 -21
2 -5 11 22 13 22 34 -1 57 -37 37 -86 36 -103 -2 -5 -11 -13 -28 -18 -36 -29
-52 -59 -134 -66 -185 -3 -22 -8 -54 -11 -71 -4 -20 0 -43 10 -62 18 -34 21
-92 7 -120 -20 -39 -41 -94 -41 -105 0 -7 -6 -19 -12 -25 -7 -7 -13 -20 -13
-29 0 -31 -21 -23 -23 9 -2 35 -7 49 -40 118 -12 25 -22 52 -22 61 0 8 -16 30
-35 49 -19 19 -35 39 -35 46 0 7 -8 15 -18 18 -11 4 -18 15 -18 27 1 12 -10
26 -29 37 -16 9 -38 27 -48 40 -10 12 -23 20 -27 17 -10 -6 -100 80 -100 95 0
6 -6 10 -13 10 -7 0 -33 18 -57 40 -24 22 -53 43 -63 46 -12 4 -17 12 -14 25
3 12 -2 20 -14 24 -11 4 -39 22 -64 41 -26 19 -51 31 -60 28 -8 -4 -15 -1 -15
5 0 6 5 11 11 11 7 0 0 11 -15 25 -15 14 -30 25 -33 25 -3 0 -21 14 -40 30
-18 17 -40 30 -48 30 -8 0 -15 4 -15 8 0 5 -18 18 -40 31 -22 12 -45 30 -52
40 -8 11 -31 27 -53 36 -22 10 -42 19 -45 20 -3 2 -15 6 -27 10 -12 4 -24 14
-27 22 -3 7 -2 12 3 9 5 -3 12 6 16 21 3 15 15 44 25 66 10 21 24 63 31 93 7
30 16 57 21 60 4 3 8 20 8 39 0 19 5 37 10 40 6 4 10 14 8 23 -1 10 1 22 5 29
4 6 9 53 12 103 5 99 13 158 24 165 4 2 6 19 5 37 -1 18 2 39 8 45 7 9 7 17
-1 27 -9 11 -9 15 1 19 10 3 10 9 1 25 -9 16 -9 24 2 38 17 22 20 70 5 79 -6
4 -8 10 -5 15 3 5 -3 14 -12 20 -17 11 -17 11 0 6 12 -4 17 0 17 13 0 10 7 35
15 55 8 20 11 36 7 36 -5 0 -9 44 -8 98 0 53 -4 111 -9 127 -10 37 -45 75 -62
68 -7 -3 -13 2 -13 10 0 8 -11 18 -24 21 -13 3 -30 8 -38 11 -8 3 -22 -3 -32
-14z m32 -117 c16 -11 22 -25 22 -54 0 -21 4 -41 8 -44 5 -3 5 -27 1 -53 -4
-26 -8 -87 -8 -135 -1 -48 -5 -89 -10 -92 -5 -3 -5 -21 -1 -40 4 -19 6 -37 4
-39 -2 -2 -6 -35 -9 -73 -3 -38 -9 -96 -14 -129 -5 -33 -7 -71 -6 -85 2 -14
-1 -30 -7 -37 -5 -6 -9 -31 -10 -54 0 -23 -8 -60 -18 -83 -10 -23 -21 -63 -25
-91 -4 -27 -14 -60 -21 -73 -8 -12 -12 -27 -9 -32 8 -13 -12 -47 -34 -59 -16
-9 -18 -7 -18 13 0 13 -13 40 -29 60 -21 26 -28 44 -25 68 2 26 0 30 -11 21
-10 -9 -13 -4 -12 26 0 20 4 43 8 49 5 8 0 12 -13 12 -12 0 -22 7 -22 15 -1 8
-2 21 -3 28 0 6 -11 22 -23 34 -27 26 -29 35 -8 27 9 -4 15 0 15 10 0 9 -5 16
-11 16 -5 0 -9 8 -8 18 1 9 0 24 -4 32 -15 41 -30 350 -17 350 4 0 11 -5 18
-12 9 -9 12 -8 12 6 0 9 -4 26 -10 36 -7 13 -6 22 3 32 7 7 13 33 13 58 1 46
17 98 45 141 14 21 18 22 33 9 16 -12 25 -6 90 63 39 42 76 77 81 77 6 0 21
-7 33 -16z m822 -2660 c0 -3 -18 -28 -40 -54 -22 -26 -40 -50 -40 -53 0 -3
-15 -20 -33 -38 -18 -19 -44 -47 -57 -64 -39 -47 -99 -89 -172 -120 -66 -27
-68 -27 -117 -11 -27 9 -63 16 -80 16 -19 0 -45 12 -73 35 -24 19 -50 38 -58
41 -9 3 -22 19 -30 37 -7 17 -15 26 -18 19 -6 -19 -21 -14 -19 7 1 24 19 28
134 30 129 3 214 11 235 22 10 5 37 14 60 19 62 13 141 41 159 57 8 7 28 13
43 13 16 0 41 11 58 25 28 24 48 32 48 19z"/>
<path d="M20231 11960 c-14 -6 -31 -8 -38 -6 -7 3 -13 1 -13 -4 0 -6 -14 -10
-30 -10 -34 0 -102 -39 -96 -56 2 -6 -15 -31 -37 -56 -39 -43 -101 -126 -102
-138 0 -5 -38 -87 -56 -122 -5 -10 -9 -29 -9 -42 0 -13 -7 -27 -16 -30 -23 -9
-24 -8 -24 14 0 25 -32 100 -42 100 -5 0 -8 8 -8 18 -1 21 -34 62 -50 62 -6 0
-10 6 -7 13 7 19 -13 49 -28 43 -8 -3 -17 -1 -20 4 -4 6 -12 10 -20 10 -16 0
-30 -33 -16 -38 6 -2 11 -19 11 -37 0 -18 6 -36 13 -39 10 -5 10 -7 0 -12 -7
-3 -13 -13 -13 -22 0 -12 3 -13 12 -4 23 23 40 14 33 -18 -5 -22 -1 -42 14
-71 12 -22 21 -46 21 -55 0 -8 9 -41 19 -72 11 -32 22 -69 25 -83 2 -13 9 -37
15 -52 6 -16 11 -76 11 -134 0 -72 5 -124 17 -160 14 -44 15 -56 4 -62 -10 -6
-10 -14 -3 -28 6 -11 11 -28 11 -39 0 -41 8 -110 14 -129 10 -28 62 -48 78
-29 6 8 17 14 24 14 7 0 15 18 19 40 7 43 -2 229 -12 244 -3 6 -7 42 -9 80 -2
39 -6 78 -9 86 -6 16 -18 138 -17 180 0 31 29 135 48 174 8 16 12 32 9 37 -3
5 -1 9 3 9 5 0 17 23 28 51 11 28 26 55 33 61 6 6 12 17 12 25 0 8 11 24 25
35 14 11 23 23 20 27 -6 11 74 97 87 93 6 -1 15 1 22 6 20 15 130 21 186 10
52 -10 185 -81 220 -116 39 -41 68 -91 81 -137 4 -16 15 -50 24 -75 30 -79 47
-192 51 -330 l4 -135 29 -3 c24 -3 33 3 52 34 13 21 22 48 21 60 -1 13 2 25 6
28 5 3 7 41 5 85 -3 88 -5 99 -27 181 -8 30 -12 58 -10 62 3 5 0 8 -6 8 -7 0
-10 7 -6 15 10 27 -69 195 -93 195 -11 0 -11 3 -1 15 10 13 9 15 -8 15 -13 0
-20 5 -17 13 5 14 -38 67 -55 67 -5 0 -10 7 -10 15 0 17 -30 35 -58 35 -10 0
-27 9 -37 20 -10 11 -31 20 -47 20 -16 0 -41 9 -57 21 -32 24 -160 36 -200 19z"/>
<path d="M12422 11947 c-27 -12 -31 -38 -31 -164 0 -76 4 -103 14 -107 11 -4
11 -11 3 -34 -12 -30 -5 -67 11 -58 4 3 6 17 3 31 -2 14 0 25 6 25 13 0 20
-65 9 -85 -5 -9 -5 -46 -1 -83 4 -37 7 -71 5 -76 -1 -5 -4 -49 -6 -98 -2 -49
-7 -93 -10 -98 -4 -6 -8 -23 -11 -38 -2 -15 -9 -39 -15 -54 -6 -15 -8 -32 -4
-37 3 -6 1 -11 -5 -11 -7 0 -10 -6 -7 -12 2 -7 -6 -29 -19 -49 -13 -20 -20
-40 -17 -43 4 -3 1 -6 -5 -6 -7 0 -12 -7 -12 -15 0 -8 -9 -19 -20 -25 -11 -6
-20 -18 -20 -27 0 -9 -13 -39 -28 -67 -16 -28 -32 -63 -36 -78 -3 -16 -11 -28
-17 -28 -6 0 -8 -4 -4 -9 3 -5 -3 -16 -13 -23 -22 -15 -46 -57 -38 -65 3 -3
-6 -14 -19 -25 -14 -11 -25 -29 -25 -40 0 -21 -58 -107 -72 -108 -5 0 -8 12
-8 26 0 36 -30 134 -40 134 -5 0 -16 13 -25 30 -8 16 -27 33 -40 36 -14 3 -25
10 -25 14 0 8 -57 47 -116 80 -36 21 -74 26 -74 11 0 -9 -93 -61 -110 -61 -17
0 -47 -36 -44 -53 1 -10 -2 -14 -7 -11 -6 3 -17 0 -25 -7 -12 -9 -12 -14 -2
-20 14 -9 12 -89 -3 -103 -15 -16 -11 -26 8 -19 14 5 15 1 9 -28 -4 -19 -10
-45 -12 -59 -3 -14 -12 -35 -20 -47 -8 -13 -10 -23 -4 -23 5 0 1 -16 -10 -35
-11 -19 -15 -35 -10 -35 6 0 8 -11 4 -25 -4 -16 -2 -25 6 -25 6 0 8 -5 5 -10
-5 -8 -11 -8 -20 0 -22 19 -19 194 5 264 11 33 20 68 20 80 0 17 -5 14 -25
-16 -46 -68 -91 -252 -65 -268 7 -4 6 -26 0 -63 -10 -51 -9 -60 12 -99 12 -24
21 -46 20 -49 -1 -4 24 -19 55 -34 54 -25 60 -26 118 -15 33 6 70 18 82 26 12
8 31 14 42 14 10 0 31 14 44 30 14 17 34 30 44 30 11 0 24 5 30 11 10 10 7
-10 -26 -186 -7 -33 -16 -69 -21 -80 -28 -65 -60 -180 -51 -183 14 -5 15 -42
1 -42 -5 0 -7 7 -4 15 5 11 2 13 -11 9 -11 -5 -15 -15 -12 -30 2 -13 -1 -22
-6 -21 -6 1 -15 -15 -21 -35 -6 -20 -25 -52 -41 -70 -35 -38 -65 -89 -65 -111
0 -8 -7 -20 -16 -28 -8 -7 -13 -21 -11 -31 4 -14 -1 -18 -24 -18 -17 0 -32 -6
-35 -15 -7 -17 -42 -14 -54 5 -5 7 -15 10 -25 6 -46 -17 -166 83 -242 202 -18
28 -41 52 -49 52 -9 0 -14 7 -12 18 1 9 -5 28 -15 42 -9 13 -17 30 -17 36 0 7
-11 25 -24 41 -13 15 -34 48 -47 73 -14 25 -37 65 -53 89 -15 24 -29 49 -30
55 -1 6 -7 21 -14 33 -7 12 -12 28 -12 35 0 7 -7 25 -14 40 -8 16 -15 36 -16
45 -6 128 -6 372 1 390 6 18 5 23 -6 23 -19 0 -20 39 -2 46 9 3 14 24 15 57 0
29 3 86 7 127 3 41 2 81 -3 89 -6 8 -4 24 5 42 9 18 13 45 9 76 -3 25 -1 54 4
63 5 9 5 22 0 30 -5 9 -5 19 2 27 6 7 12 54 14 103 2 73 7 95 23 116 12 15 18
31 14 38 -10 16 -3 67 13 90 12 17 11 21 -6 33 -24 17 -26 39 -3 51 27 16 40
163 28 325 -1 22 -16 59 -34 86 -50 78 -121 93 -129 27 -2 -15 -9 -25 -15 -23
-7 2 -17 -3 -24 -12 -15 -20 -17 -71 -2 -71 5 0 -2 -16 -16 -35 -20 -26 -25
-41 -21 -62 4 -15 2 -50 -4 -78 -21 -97 -22 -105 -11 -119 6 -7 8 -16 5 -19
-9 -9 -19 -215 -26 -544 -1 -90 -6 -163 -10 -163 -12 0 -1 -250 13 -266 14
-17 26 -203 14 -231 -4 -10 -8 -38 -10 -63 -2 -25 -18 -87 -35 -138 -16 -51
-30 -99 -30 -107 0 -8 -5 -15 -10 -15 -6 0 -9 -3 -8 -7 3 -12 -12 -95 -20
-107 -7 -12 -60 -161 -67 -188 -9 -40 -50 -143 -58 -149 -5 -3 -7 -12 -5 -20
3 -16 -43 -99 -66 -118 -8 -7 -13 -18 -10 -26 3 -7 1 -16 -5 -20 -6 -3 -11
-15 -11 -26 0 -10 -4 -19 -10 -19 -5 0 -13 -12 -17 -27 -14 -57 -46 -119 -74
-141 -16 -13 -29 -29 -29 -36 0 -8 -27 -31 -60 -52 -32 -22 -58 -44 -56 -49 2
-6 -5 -12 -16 -12 -12 -1 -31 -11 -43 -23 -12 -11 -26 -20 -31 -19 -5 1 -22
-3 -39 -10 -39 -16 -111 -6 -150 22 -16 12 -42 29 -56 37 -30 17 -139 133
-139 148 0 5 -7 15 -15 22 -8 7 -15 21 -15 30 0 10 -4 20 -10 22 -5 2 -11 12
-13 23 -2 11 -10 34 -17 50 -8 18 -14 86 -16 175 -5 181 -23 391 -37 408 -5 7
-10 30 -10 52 0 23 -2 38 -5 36 -8 -9 -43 68 -38 87 2 9 0 17 -4 17 -5 0 -12
17 -16 38 -4 20 -13 45 -22 55 -8 9 -11 17 -7 17 4 0 2 8 -6 18 -8 9 -21 30
-29 45 -11 21 -19 27 -35 23 -11 -3 -27 -6 -35 -6 -15 0 -40 -42 -40 -67 0 -9
-6 -10 -26 -3 -17 7 -32 6 -46 -1 -15 -8 -19 -8 -14 0 4 6 0 11 -9 11 -13 0
-15 -6 -10 -32 10 -44 11 -46 51 -63 19 -8 34 -18 34 -23 0 -16 32 -23 47 -10
8 6 13 7 11 2 -1 -5 4 -25 11 -44 8 -19 13 -40 12 -46 -1 -7 4 -25 10 -40 6
-16 10 -31 9 -33 -1 -2 3 -7 9 -10 6 -4 12 -34 13 -68 2 -34 6 -60 9 -58 3 2
6 -15 6 -38 0 -23 6 -89 12 -147 20 -171 14 -241 -30 -322 -5 -10 -9 -25 -9
-34 0 -9 -9 -27 -20 -41 -12 -16 -18 -34 -14 -45 6 -21 -28 -83 -52 -92 -8 -3
-13 -10 -9 -15 3 -5 1 -12 -5 -16 -6 -4 -8 -11 -5 -16 9 -14 -160 -203 -205
-228 -22 -12 -40 -25 -40 -29 0 -8 -49 -32 -65 -32 -7 0 -20 -9 -31 -21 -13
-15 -26 -19 -46 -15 -16 3 -28 0 -31 -7 -3 -9 -9 -9 -26 1 -11 6 -33 12 -49
12 -15 0 -39 8 -52 17 -14 10 -26 15 -27 13 -3 -9 -53 70 -53 84 0 7 -7 27
-16 45 -9 18 -14 43 -12 56 3 14 1 22 -6 19 -7 -3 -12 18 -14 57 -1 34 -5 66
-9 73 -9 13 -8 10 -17 106 -4 41 -14 118 -23 170 -8 52 -15 100 -15 105 1 6 2
44 3 85 1 61 5 77 21 88 15 11 17 17 7 28 -9 11 -9 18 -1 26 7 7 12 9 12 6 0
-3 14 7 32 24 29 27 33 28 39 11 6 -15 9 -13 19 15 11 29 16 32 40 27 38 -8
63 21 35 41 -17 13 -16 14 18 14 20 0 37 5 37 11 0 5 -4 7 -10 4 -5 -3 -10 -2
-10 3 0 6 8 13 18 17 15 6 13 9 -11 21 -24 13 -26 17 -13 29 20 21 52 19 76
-5 11 -11 20 -15 20 -10 0 6 0 12 0 15 0 3 11 25 24 49 16 30 23 61 23 97 l1
54 35 0 c23 0 44 8 59 23 13 12 35 22 49 22 13 0 29 4 35 8 12 8 14 52 2 52
-4 0 -8 6 -8 14 0 27 -60 35 -115 15 -26 -10 -38 -8 -74 9 -45 22 -86 17 -97
-12 -3 -8 -22 -21 -42 -29 -20 -8 -50 -29 -66 -46 -17 -17 -36 -31 -43 -31 -7
0 -13 -4 -13 -8 0 -4 -20 -21 -45 -36 -24 -16 -50 -41 -57 -57 -7 -16 -16 -29
-20 -29 -5 0 -8 -5 -8 -10 0 -6 -16 -52 -36 -103 -35 -89 -43 -125 -45 -214
-1 -34 -9 -50 -38 -82 -20 -22 -37 -45 -39 -52 -1 -6 -14 -26 -27 -44 -29 -37
-31 -53 -10 -61 23 -9 18 -19 -20 -40 -21 -11 -35 -26 -35 -37 0 -10 -14 -53
-31 -95 -17 -43 -29 -90 -27 -108 1 -18 -4 -39 -12 -49 -17 -20 -18 -71 -2
-68 7 2 12 -2 12 -7 0 -6 -7 -11 -15 -11 -8 -1 -19 -2 -25 -3 -13 -1 -60 -53
-60 -66 0 -5 -5 -10 -11 -10 -5 0 -8 -4 -5 -9 4 -5 1 -11 -5 -13 -7 -2 -12
-18 -13 -36 0 -18 -5 -32 -11 -32 -5 0 -21 -16 -35 -36 -13 -20 -41 -52 -62
-72 -20 -19 -35 -39 -32 -44 3 -5 -2 -16 -12 -23 -11 -8 -14 -15 -7 -15 20 0
2 -36 -28 -54 -16 -9 -30 -21 -30 -27 -1 -5 -2 -12 -3 -16 -2 -13 -49 -62 -74
-79 -22 -15 -25 -14 -42 4 -10 11 -26 53 -34 93 -18 81 -29 127 -44 176 -6 17
-8 33 -6 36 3 2 4 31 4 63 -1 33 -1 72 0 88 0 15 -4 33 -8 40 -5 6 -9 18 -10
26 0 8 -5 44 -12 80 -6 36 -14 80 -17 98 -3 18 -9 35 -14 38 -5 3 -9 21 -9 40
0 19 -7 48 -15 63 -8 16 -11 31 -8 35 4 3 2 6 -4 6 -6 0 -14 16 -17 35 -4 19
-11 35 -17 35 -6 0 -7 4 -4 10 3 5 -1 22 -9 38 -8 16 -12 32 -9 36 4 3 1 6 -6
6 -7 0 -9 5 -6 10 4 6 -6 23 -22 38 -15 16 -29 30 -30 33 -1 2 -5 12 -8 22 -4
9 -14 17 -22 17 -8 0 -12 4 -8 9 8 13 -83 81 -100 75 -7 -3 -16 0 -21 7 -4 8
-3 10 4 5 7 -4 12 -3 12 3 0 5 -12 11 -27 13 -32 4 -154 -19 -163 -30 -3 -4
-22 -20 -42 -35 -21 -15 -38 -32 -38 -37 0 -5 -9 -20 -21 -32 -72 -81 -100
-115 -105 -130 -3 -10 -10 -18 -15 -18 -5 0 -9 -7 -9 -15 0 -9 -18 -40 -40
-69 -26 -35 -40 -63 -40 -83 0 -19 -6 -33 -16 -37 -23 -9 -25 -5 -30 61 -4 60
-10 108 -14 108 -1 0 -3 9 -5 20 -1 11 -8 50 -14 88 -11 64 -17 109 -26 187
-2 19 -7 51 -11 70 -4 19 -8 42 -9 50 -1 8 -7 42 -13 75 -5 33 -8 76 -7 95 1
19 0 40 -4 45 -5 8 -8 39 -10 125 0 8 1 40 3 70 2 30 6 109 10 175 3 66 11
143 16 170 10 50 7 328 -4 375 -4 14 -8 81 -10 150 -3 71 -11 142 -19 165 -8
22 -12 52 -10 67 2 19 -2 31 -17 40 -21 13 -27 43 -11 52 12 8 19 76 9 82 -4
3 -8 14 -8 25 0 10 -4 19 -10 19 -5 0 -10 11 -10 25 0 14 -7 28 -15 31 -8 4
-15 12 -15 20 0 8 -5 14 -11 14 -5 0 -7 5 -3 12 5 8 -5 9 -35 5 -62 -8 -74
-21 -66 -78 6 -42 4 -50 -18 -69 -22 -19 -23 -26 -16 -65 5 -24 6 -72 3 -107
-12 -157 1 -377 32 -528 4 -19 8 -48 8 -65 1 -16 7 -35 15 -41 9 -7 10 -13 4
-17 -10 -6 -1 -78 14 -117 9 -22 9 -21 17 -65 4 -22 12 -50 18 -62 7 -14 8
-42 3 -75 -4 -29 -8 -62 -9 -74 -1 -11 -6 -25 -10 -32 -4 -7 -5 -16 -2 -20 3
-5 -6 -31 -19 -58 -14 -27 -25 -57 -25 -66 0 -9 -5 -30 -11 -45 -28 -68 -32
-79 -42 -100 -6 -13 -8 -26 -4 -29 9 -9 -33 -40 -65 -48 -18 -4 -25 -11 -22
-20 3 -8 1 -17 -5 -20 -6 -4 -7 -14 -4 -23 4 -11 3 -14 -5 -9 -18 11 -15 -39
3 -54 8 -6 33 -13 56 -13 39 -2 44 2 76 43 18 25 36 53 39 63 4 9 10 17 14 17
8 0 32 54 34 75 2 22 31 9 32 -15 2 -32 12 -130 20 -195 7 -52 19 -85 38 -97
8 -5 7 -8 -2 -8 -16 0 -8 -143 15 -240 16 -73 37 -196 51 -314 6 -43 14 -82
19 -85 5 -3 10 -22 11 -41 3 -59 14 -114 24 -127 6 -7 8 -22 5 -33 -3 -11 -1
-23 4 -26 5 -3 9 -26 8 -52 -1 -48 23 -190 35 -211 12 -19 15 -51 5 -51 -13 0
-11 -68 2 -72 6 -2 12 -21 13 -43 8 -117 17 -152 48 -170 25 -15 34 -15 54 -4
13 7 24 18 24 26 0 7 4 13 8 13 14 0 3 183 -15 250 -3 8 -5 22 -7 30 -1 9 -5
20 -8 25 -3 6 -6 48 -7 95 -1 47 -6 99 -12 117 -25 78 -10 417 20 458 4 5 8
21 9 34 0 14 8 29 17 33 8 5 13 13 10 19 -4 5 3 22 14 38 12 16 21 33 21 38 0
5 11 20 25 33 13 12 23 25 22 29 -1 3 37 45 84 94 82 83 88 87 130 87 27 0 52
-7 65 -18 28 -23 84 -109 84 -128 0 -9 8 -28 19 -42 10 -15 21 -40 25 -57 4
-16 12 -33 17 -36 11 -6 12 -9 24 -77 4 -23 12 -45 16 -48 5 -3 9 -26 9 -52 1
-26 8 -65 16 -87 16 -43 34 -135 39 -201 1 -23 5 -46 8 -51 4 -6 2 -25 -3 -42
-5 -20 -5 -42 1 -57 5 -14 9 -38 9 -54 0 -16 4 -31 9 -34 5 -3 7 -14 4 -24 -2
-11 3 -36 11 -57 9 -20 16 -47 16 -60 0 -27 71 -140 95 -148 31 -12 92 -7 105
8 7 8 18 15 24 15 24 0 166 166 166 194 0 9 7 19 15 22 8 4 15 11 15 17 0 6 7
17 15 26 35 37 62 77 58 86 -2 6 10 24 25 41 16 17 37 49 47 70 10 22 28 52
41 67 13 15 31 45 39 65 9 20 24 52 33 71 9 19 17 37 18 40 0 3 3 13 6 21 14
36 30 109 33 155 8 105 21 177 35 185 8 5 11 12 7 16 -8 8 31 44 48 44 7 0 13
-11 13 -24 0 -14 3 -55 7 -93 5 -37 8 -71 7 -76 -1 -4 5 -53 14 -110 8 -56 17
-112 18 -125 1 -12 6 -25 9 -29 4 -3 7 -30 7 -59 0 -29 4 -55 9 -59 5 -3 13
-30 16 -60 5 -36 19 -75 41 -111 19 -31 34 -60 34 -65 0 -11 56 -52 110 -80
36 -18 62 -23 125 -23 85 -1 82 -2 298 110 39 21 167 147 167 166 0 5 9 19 21
31 11 12 30 41 41 65 11 23 29 47 40 53 10 5 16 14 13 19 -3 4 2 15 10 23 8 8
24 41 36 74 27 74 42 91 63 73 9 -7 16 -17 16 -22 0 -14 32 -80 45 -94 5 -6
34 -39 64 -72 29 -34 79 -78 110 -99 31 -20 58 -40 61 -45 12 -16 116 -43 162
-42 26 1 69 11 95 24 26 12 63 29 82 38 43 20 208 186 241 242 14 24 30 48 35
54 16 17 56 96 48 96 -4 0 3 10 14 23 29 32 45 66 37 79 -4 6 -3 8 3 5 6 -4
17 11 26 36 31 87 48 132 54 147 3 8 5 21 4 28 -1 6 2 12 6 12 4 0 17 28 27
63 11 34 23 67 26 72 16 24 21 68 8 77 -10 7 -10 11 2 21 27 22 43 64 37 97
-6 26 -4 30 11 28 11 -2 17 3 16 15 -4 44 34 -1 85 -103 50 -101 83 -157 116
-200 19 -25 41 -59 49 -76 8 -17 19 -35 25 -38 6 -4 21 -26 32 -49 12 -22 32
-49 45 -60 13 -10 24 -23 24 -28 0 -5 8 -17 18 -27 10 -10 25 -27 33 -38 8
-10 39 -42 69 -70 49 -45 62 -51 125 -62 39 -7 103 -11 144 -9 71 4 76 5 104
38 28 34 87 148 87 170 0 6 10 25 23 42 38 54 96 184 97 217 0 8 13 34 29 58
18 26 32 62 36 95 4 28 10 66 15 82 7 26 16 77 36 219 3 17 6 48 9 68 4 41 21
70 72 124 19 20 42 49 51 63 9 14 25 32 34 39 10 7 18 19 18 26 0 7 9 21 20
31 23 20 70 108 70 130 0 8 5 15 11 15 6 0 9 7 5 15 -3 9 0 15 9 15 8 0 15 7
15 15 0 8 5 15 10 15 6 0 10 7 10 15 0 8 4 15 9 15 8 0 25 53 24 78 0 6 5 12
13 12 8 0 14 10 14 25 0 14 5 25 10 25 6 0 10 7 10 15 0 14 29 35 48 35 9 0
16 -68 28 -303 4 -65 10 -120 15 -122 4 -3 3 -20 -2 -37 -5 -18 -9 -89 -8
-158 0 -76 -4 -126 -10 -128 -7 -2 -7 -12 0 -28 11 -31 12 -161 1 -168 -5 -3
-7 -18 -4 -34 2 -17 -1 -39 -7 -50 -8 -14 -8 -34 -2 -62 5 -22 6 -40 2 -40 -4
0 -6 -125 -4 -277 2 -250 4 -279 19 -290 27 -20 39 -16 78 21 26 24 34 39 30
51 -11 28 17 337 33 360 7 11 13 32 13 47 0 16 4 36 9 46 14 26 24 56 22 66
-1 4 4 14 10 22 6 8 9 14 5 14 -3 0 3 17 14 37 11 21 20 43 20 49 0 7 12 31
28 54 15 23 27 45 28 49 5 35 72 147 94 155 50 20 75 25 80 16 6 -9 127 -64
210 -94 19 -8 67 -29 105 -49 97 -49 119 -52 216 -27 46 11 93 22 104 24 42 7
81 20 110 36 17 9 48 23 70 30 36 12 81 36 95 50 5 5 26 11 50 14 8 1 35 11
59 24 24 12 47 19 52 16 4 -2 30 8 58 23 27 15 51 26 53 23 85 -115 95 -124
163 -157 69 -33 137 -43 150 -23 3 6 15 10 25 10 10 0 25 7 34 15 8 8 19 15
24 15 22 0 152 175 152 204 0 8 5 18 10 21 6 3 7 17 4 29 -4 16 0 25 10 29 20
8 59 95 60 133 0 24 4 30 15 26 11 -4 13 0 8 17 -3 12 2 36 10 53 l16 31 16
-29 c8 -16 14 -32 13 -36 -1 -5 2 -8 7 -8 5 0 12 -12 16 -27 3 -15 19 -55 36
-89 16 -35 29 -69 29 -76 0 -7 9 -28 20 -46 11 -18 20 -39 20 -46 0 -7 6 -19
14 -25 17 -14 59 -91 49 -91 -3 0 1 -8 9 -17 8 -10 20 -33 28 -50 7 -18 17
-33 22 -33 5 0 8 -6 6 -12 -2 -13 109 -138 122 -138 10 0 -4 69 -22 110 -9 19
-32 80 -51 135 -42 122 -76 196 -97 212 -8 6 -12 15 -8 19 4 4 4 12 -1 18 -5
6 -21 52 -36 101 -15 50 -33 104 -41 122 -8 17 -14 34 -14 37 0 3 -13 28 -30
54 -16 27 -30 59 -30 71 0 11 -5 21 -12 21 -9 0 -9 3 -1 11 8 8 6 22 -7 52
-19 45 -30 129 -34 272 -2 50 -3 97 -4 105 -2 19 -46 70 -60 70 -17 0 -62 -60
-55 -75 3 -9 2 -40 -1 -69 -6 -42 -12 -55 -27 -59 -10 -3 -19 -1 -19 5 0 5
-10 7 -22 3 -21 -6 -22 -5 -6 8 17 13 16 15 -5 35 -13 12 -27 22 -32 22 -5 0
-16 6 -24 13 -19 16 -101 41 -108 33 -3 -3 11 -12 31 -20 54 -23 45 -36 -21
-30 -69 6 -93 7 -114 5 -19 -1 -139 -117 -139 -134 0 -6 -11 -21 -24 -32 -31
-27 -56 -78 -62 -128 -3 -23 -9 -46 -14 -52 -15 -18 -38 -159 -36 -215 2 -30
1 -58 -1 -63 -8 -13 -9 -152 -2 -183 8 -40 2 -50 -42 -68 -20 -8 -41 -22 -48
-30 -7 -9 -17 -13 -22 -11 -11 8 -109 -25 -109 -36 0 -5 -8 -9 -18 -9 -10 0
-23 -5 -29 -11 -14 -14 -104 -48 -155 -59 -21 -4 -44 -13 -52 -19 -8 -7 -19
-10 -24 -7 -12 7 -74 -13 -83 -27 -4 -5 -45 -8 -92 -6 -72 3 -89 8 -109 27
-14 12 -31 22 -39 22 -9 0 -43 11 -76 25 -34 13 -80 27 -102 31 -27 4 -41 12
-41 22 0 8 -3 12 -7 9 -3 -4 -11 1 -18 9 -13 18 -42 25 -126 30 -49 3 -59 0
-79 -21 -13 -14 -27 -25 -32 -25 -13 0 -57 -53 -58 -67 0 -7 -9 -22 -20 -33
-11 -11 -21 -30 -24 -43 -7 -42 -57 -138 -69 -134 -12 4 -13 54 -6 237 5 152
-4 485 -14 498 -5 7 -7 36 -4 67 3 30 2 55 -1 55 -4 0 -6 55 -5 123 3 170 5
513 4 567 -1 25 -1 52 0 60 0 8 -6 59 -15 112 -8 54 -18 136 -22 182 -4 47
-10 83 -14 81 -4 -3 -13 2 -20 9 -13 16 -36 17 -68 3z m-1516 -179 c-15 -56
-18 -98 -7 -98 17 0 13 -37 -5 -44 -9 -3 -26 -6 -39 -6 -16 0 -24 -6 -24 -17
0 -62 -10 -106 -28 -129 l-21 -26 2 79 c3 91 17 133 46 133 12 0 20 -7 20 -17
0 -15 2 -14 15 3 21 28 19 33 -15 32 -17 -1 -36 4 -43 11 -9 10 -9 12 3 9 9
-2 18 10 24 35 6 25 15 37 27 37 10 0 21 5 24 10 12 19 27 10 21 -12z m-4319
-548 c11 0 13 -5 8 -17 -4 -10 -8 -24 -8 -30 0 -7 -6 -13 -14 -13 -8 0 -13
-13 -13 -36 0 -32 2 -35 23 -29 14 4 18 3 9 -3 -7 -5 -13 -17 -14 -28 0 -22
12 -168 17 -201 2 -13 0 -25 -5 -28 -15 -9 1 -35 21 -35 24 0 25 -27 2 -32
-26 -5 -43 46 -68 201 -2 14 -7 45 -11 69 -5 31 -3 42 6 42 9 0 11 15 6 58 -3
31 -8 75 -10 96 l-4 40 20 -27 c11 -15 27 -27 35 -27z m7936 -117 c20 -14 37
-32 37 -40 0 -17 18 -36 41 -45 33 -13 48 -135 18 -153 -5 -4 -9 -14 -9 -24 0
-37 -32 -79 -132 -171 -56 -52 -123 -115 -148 -140 -41 -41 -137 -110 -153
-110 -4 0 -6 3 -6 8 3 18 -3 46 -8 35 -2 -7 -9 -13 -15 -13 -6 0 -5 6 2 15 16
19 23 147 10 180 -5 14 -6 25 -2 25 4 0 16 37 26 83 11 45 26 93 32 106 7 14
10 29 7 35 -4 6 -20 -18 -36 -52 -16 -35 -31 -61 -33 -59 -7 7 25 160 36 171
5 5 10 18 10 28 0 9 10 23 23 29 19 11 20 10 9 -3 -10 -13 -9 -17 10 -22 30
-8 98 61 98 99 0 18 5 25 19 25 10 0 34 7 52 15 40 16 60 12 112 -22z m155
-447 c-5 -17 -11 -60 -13 -96 -2 -51 -8 -68 -24 -81 -13 -11 -17 -19 -9 -21 7
-3 8 -10 4 -17 -7 -11 -10 -11 -18 0 -6 9 -7 3 -3 -19 5 -24 3 -34 -9 -38 -9
-3 -16 -14 -16 -24 0 -11 -4 -22 -10 -25 -5 -3 -10 -15 -10 -26 0 -10 -5 -19
-10 -19 -12 0 -130 -118 -130 -131 0 -12 -70 -9 -95 4 -11 6 -26 10 -32 9 -7
-2 -13 2 -13 8 0 6 -4 8 -10 5 -5 -3 -10 -1 -10 5 0 8 -9 10 -25 6 -24 -6 -37
8 -14 16 12 4 -8 57 -23 59 -4 1 -12 2 -17 3 -6 0 -16 7 -22 14 -10 10 -9 12
8 12 23 0 134 62 154 86 6 8 16 14 22 14 6 0 46 36 89 80 42 44 81 80 86 80 5
0 22 11 38 25 16 14 32 25 36 25 4 0 15 15 24 33 37 72 73 82 52 13z m-2830
-56 c34 -25 67 -84 57 -101 -4 -5 -1 -17 6 -25 15 -18 5 -134 -16 -174 -14
-27 -100 -103 -120 -106 -7 -1 -34 -14 -61 -28 -27 -14 -53 -26 -57 -26 -5 0
-24 -7 -42 -16 -30 -14 -36 -14 -64 1 -25 13 -31 22 -31 50 0 18 -4 36 -9 39
-9 6 -8 50 2 76 3 8 5 22 6 30 0 47 38 160 53 160 5 0 7 8 4 18 -6 19 28 47
44 37 11 -7 26 22 16 32 -3 3 -12 0 -21 -7 -12 -10 -15 -10 -15 0 0 26 33 50
69 50 20 0 43 5 51 11 23 16 94 4 128 -21z m-3008 -599 c0 -16 6 -31 13 -34 9
-3 7 -9 -5 -24 -10 -11 -18 -24 -18 -29 0 -5 -14 -22 -30 -38 -23 -22 -27 -32
-19 -42 9 -11 6 -16 -14 -23 -13 -5 -27 -17 -30 -25 -4 -9 -16 -16 -27 -16
-12 0 -32 -11 -46 -25 -14 -14 -33 -25 -44 -25 -10 0 -21 -6 -23 -12 -3 -7 -6
4 -6 25 -1 21 4 37 10 37 6 0 9 6 6 14 -4 9 9 28 31 48 20 18 39 42 40 52 3
17 2 18 -12 7 -13 -11 -16 -11 -16 2 0 8 11 18 25 21 16 4 25 13 25 26 0 23
77 83 97 76 7 -3 15 -1 18 4 12 20 25 9 25 -19z"/>
<path d="M2920 11921 c-8 -5 -36 -18 -61 -30 -25 -11 -58 -34 -75 -50 -16 -17
-35 -31 -41 -31 -7 0 -18 -9 -25 -20 -7 -11 -18 -20 -25 -20 -6 0 -18 -8 -25
-17 -7 -10 -30 -27 -51 -37 -21 -11 -51 -35 -67 -53 -16 -18 -32 -33 -35 -33
-3 0 -34 -28 -69 -63 -35 -35 -67 -62 -73 -60 -5 2 -32 -20 -60 -49 -28 -29
-70 -69 -93 -88 -63 -54 -110 -100 -110 -109 0 -4 -29 -41 -65 -82 -36 -40
-65 -79 -65 -85 0 -7 -11 -19 -25 -28 -14 -9 -25 -21 -25 -27 0 -5 -18 -28
-40 -50 -22 -23 -38 -45 -34 -50 3 -5 -1 -9 -10 -9 -17 0 -92 -107 -102 -147
-4 -15 -13 -34 -21 -41 -7 -7 -13 -19 -13 -26 0 -7 -12 -23 -26 -37 -14 -13
-33 -40 -41 -59 -9 -19 -31 -54 -49 -76 -18 -23 -30 -44 -27 -48 4 -3 -3 -16
-15 -29 -12 -13 -25 -38 -28 -55 -4 -19 -20 -44 -39 -60 -40 -34 -166 -287
-177 -357 -4 -27 -12 -51 -17 -53 -6 -2 -20 -24 -32 -50 -12 -26 -29 -63 -38
-81 -9 -19 -15 -39 -13 -45 2 -5 -1 -19 -7 -30 -14 -29 -32 -111 -38 -171 -3
-27 -9 -55 -15 -62 -5 -6 -8 -49 -8 -95 2 -169 -9 -323 -26 -350 -8 -12 -15
-107 -14 -177 1 -18 -6 -58 -15 -87 -21 -72 -27 -449 -9 -509 17 -54 37 -338
34 -487 0 -43 2 -78 5 -78 4 0 15 5 25 10 16 8 18 8 14 -5 -4 -8 -15 -15 -26
-15 -18 0 -19 -4 -13 -37 4 -21 9 -53 10 -71 2 -18 8 -39 14 -45 5 -7 8 -29 6
-50 -1 -20 1 -40 6 -43 5 -3 9 -19 9 -35 0 -33 22 -93 42 -112 7 -7 33 -23 58
-35 l44 -22 34 20 c40 24 43 24 36 5 -4 -8 -15 -15 -26 -15 -26 0 -20 -33 7
-38 11 -2 26 -9 33 -14 15 -13 78 -20 109 -13 13 3 38 30 60 63 21 31 45 65
54 75 10 11 20 31 24 45 4 15 13 34 20 42 7 8 15 29 17 45 1 17 5 32 9 35 10
9 46 113 59 170 7 30 18 62 26 70 12 14 18 66 28 218 2 29 5 54 7 57 3 2 4
175 3 384 -1 315 -4 384 -17 409 -8 17 -11 34 -7 39 4 4 1 46 -6 93 -7 47 -14
108 -14 135 -1 28 -5 73 -11 100 -20 106 -61 362 -63 395 -2 19 -6 45 -10 58
-6 18 -4 22 12 22 26 0 43 22 32 40 -8 13 -12 12 -24 -5 -15 -19 -15 -19 -17
8 -2 29 -3 34 -12 57 -10 28 -16 90 -7 90 4 0 10 -6 13 -12 5 -15 10 7 26 110
15 102 14 121 -11 159 -20 29 -28 34 -56 30 -28 -3 -35 1 -43 20 -9 25 -18 24
-52 -5 -9 -8 -20 -13 -22 -10 -8 8 17 60 37 79 10 9 18 20 18 25 0 9 51 86 63
95 4 3 9 16 12 28 2 13 11 28 18 35 8 6 19 26 26 44 6 19 22 43 36 54 14 11
25 26 25 34 0 8 4 14 8 14 9 0 62 101 62 117 0 6 7 16 15 23 8 7 15 21 15 31
0 11 4 19 8 19 4 0 13 15 20 34 7 18 34 56 60 84 26 29 67 77 92 108 25 31 55
67 68 81 12 13 22 26 22 29 0 19 302 320 330 329 10 3 22 15 25 26 4 10 13 19
20 19 19 0 175 149 175 167 0 9 6 12 18 9 11 -4 33 8 62 34 73 65 80 70 90 70
5 0 27 15 48 34 45 41 63 45 122 27 79 -23 92 -31 86 -46 -6 -18 -5 -18 28 -6
18 7 28 6 36 -4 7 -8 27 -17 46 -21 19 -3 34 -11 34 -16 0 -5 5 -8 11 -6 13 4
135 -114 169 -165 14 -20 28 -37 33 -37 4 0 7 -6 7 -14 0 -8 7 -16 15 -20 8
-3 18 -23 21 -45 4 -23 13 -46 20 -52 8 -6 14 -18 14 -25 0 -7 8 -28 18 -46
10 -18 19 -46 20 -61 3 -37 11 -50 28 -43 8 3 13 -1 12 -12 -2 -32 2 -52 12
-52 6 0 10 10 10 23 0 17 2 19 10 7 5 -9 5 -19 -1 -26 -11 -13 5 -135 22 -166
5 -10 9 -31 9 -47 0 -17 5 -33 10 -36 6 -3 10 -18 10 -33 0 -15 7 -37 15 -48
8 -12 12 -24 9 -26 -3 -3 -7 -68 -10 -144 -9 -214 -20 -321 -36 -341 -5 -7 -7
-16 -4 -22 3 -5 2 -11 -3 -13 -5 -1 -11 -21 -12 -43 -2 -22 -8 -48 -14 -58 -7
-13 -6 -20 5 -27 12 -8 12 -10 -3 -16 -9 -3 -17 -16 -17 -28 0 -12 -4 -26 -9
-32 -6 -5 -14 -44 -20 -87 -5 -43 -13 -83 -18 -90 -17 -22 -42 -101 -49 -152
-3 -27 -13 -59 -20 -70 -8 -11 -14 -29 -14 -40 -1 -30 -54 -179 -125 -351 -9
-22 -24 -45 -34 -51 -16 -10 -17 -8 -13 14 3 18 1 24 -7 19 -6 -4 -11 -12 -11
-17 0 -6 -13 -24 -30 -42 -35 -37 -38 -51 -10 -44 28 7 25 -8 -5 -21 -14 -6
-25 -17 -25 -24 0 -10 -3 -9 -9 1 -7 12 -15 8 -41 -17 -17 -18 -34 -32 -38
-32 -14 0 -50 -43 -46 -54 3 -7 -2 -19 -11 -26 -13 -11 -14 -10 -8 6 5 13 -6
8 -35 -16 -23 -19 -42 -40 -42 -46 0 -12 -25 -27 -45 -29 -6 0 -25 -11 -43
-23 -44 -32 -144 -82 -162 -82 -9 0 -20 -4 -26 -10 -15 -15 -254 -27 -324 -16
-45 7 -107 40 -148 79 -15 13 -36 28 -48 31 -11 3 -30 20 -42 36 -13 17 -29
30 -37 30 -8 0 -17 11 -21 25 -5 21 -9 23 -20 14 -12 -10 -19 -8 -35 9 -11 12
-26 22 -35 22 -8 0 -17 13 -20 28 -6 27 -8 29 -44 22 -21 -4 -45 -3 -54 2 -11
6 -16 5 -16 -4 0 -8 -14 -19 -31 -25 -38 -15 -37 -49 1 -46 23 3 24 2 8 -11
-22 -16 -23 -26 -2 -26 8 0 12 -4 9 -10 -3 -5 -1 -10 4 -10 6 0 11 -4 11 -8 0
-16 79 -92 95 -92 8 0 15 -4 15 -9 0 -8 114 -71 127 -71 2 0 3 7 1 16 -2 10 3
19 10 22 9 3 13 -2 11 -14 -4 -24 8 -44 27 -44 9 0 27 -13 41 -30 13 -16 31
-30 38 -30 8 0 35 -11 61 -25 26 -14 52 -25 58 -25 6 0 25 -14 43 -30 18 -17
39 -30 47 -30 8 0 24 -9 35 -21 11 -12 24 -18 29 -15 6 3 13 -4 16 -17 4 -12
46 -57 94 -100 48 -43 121 -109 162 -147 41 -39 84 -70 95 -70 11 0 26 -9 33
-20 7 -11 19 -20 27 -20 8 0 15 -4 15 -10 0 -5 8 -10 18 -10 10 0 33 -14 51
-31 23 -21 36 -27 41 -19 5 9 12 6 21 -7 19 -27 100 -77 122 -75 9 0 17 -4 17
-9 0 -6 4 -7 10 -4 5 3 21 -2 35 -11 16 -11 51 -18 90 -20 36 -1 73 -5 84 -9
11 -3 22 -1 26 5 4 6 16 8 26 5 11 -4 30 0 43 8 13 9 47 23 77 31 30 9 87 35
127 59 41 23 92 52 115 65 22 13 58 37 79 54 69 54 168 204 183 278 4 19 11
37 14 40 14 10 72 230 66 249 -3 11 -1 22 5 26 6 4 15 18 20 31 12 29 30 32
23 3 -3 -12 2 -31 14 -47 11 -15 23 -37 27 -50 5 -13 12 -20 19 -16 9 5 9 4 0
-6 -9 -10 -3 -21 28 -53 21 -23 39 -45 39 -50 0 -5 7 -6 16 -3 11 4 14 1 10
-12 -5 -14 6 -24 51 -46 32 -16 76 -38 98 -49 29 -16 63 -23 122 -25 71 -4 84
-1 101 16 11 11 23 18 26 15 5 -6 95 14 141 31 17 6 32 11 35 11 16 2 77 41
112 73 39 35 118 144 118 163 0 5 19 29 43 53 75 79 147 168 147 183 0 6 8 17
18 26 10 9 19 28 20 43 1 16 6 30 10 33 5 3 17 31 28 61 18 51 30 72 61 105 7
7 9 16 5 20 -4 4 4 4 18 0 14 -4 27 -12 31 -16 7 -12 109 -30 131 -23 13 4 16
1 12 -10 -4 -10 1 -18 12 -22 11 -4 38 -15 61 -25 23 -11 48 -19 57 -19 23 0
127 -63 122 -75 -2 -5 3 -22 10 -36 7 -15 11 -29 8 -32 -3 -3 -7 -20 -9 -38
-3 -18 -10 -36 -16 -40 -6 -4 -9 -11 -5 -17 8 -13 -8 -54 -29 -76 -10 -9 -18
-27 -19 -41 0 -13 -3 -21 -5 -19 -2 2 -13 -10 -23 -27 -11 -17 -17 -34 -14
-37 5 -5 -84 -96 -101 -103 -5 -2 -24 -23 -43 -46 -18 -24 -37 -43 -42 -43
-15 0 -118 -85 -107 -89 5 -1 18 4 28 13 10 9 20 16 24 16 3 0 18 12 32 26 14
14 29 24 31 21 8 -7 -68 -76 -84 -77 -7 0 -18 -11 -24 -25 -17 -38 -34 -30
-29 13 5 36 -39 -9 -45 -47 -4 -21 -26 -32 -53 -27 -14 2 -35 -3 -48 -11 -22
-15 -22 -16 -6 -29 16 -13 15 -14 -12 -8 -16 3 -36 8 -43 10 -8 2 -23 -3 -34
-10 -16 -11 -37 -13 -84 -9 -61 6 -64 5 -64 -16 0 -19 2 -20 20 -9 15 10 22
10 32 0 6 -6 24 -12 39 -12 15 0 29 -6 32 -13 4 -11 20 -12 74 -6 75 9 126 28
190 71 23 15 46 28 52 28 5 0 22 10 38 23 15 12 39 28 53 36 86 48 289 254
282 286 -2 9 4 18 12 21 9 3 14 10 11 14 -2 4 5 16 16 26 21 19 49 71 53 98 1
8 5 19 9 22 4 4 7 21 7 38 0 16 5 56 12 87 12 60 9 76 -39 175 -14 29 -79 72
-91 59 -3 -2 -11 3 -18 14 -7 10 -35 26 -61 35 -26 10 -67 26 -90 37 -24 10
-47 19 -51 19 -5 0 -23 7 -40 16 -18 8 -50 17 -73 19 -56 5 -70 18 -58 58 21
74 6 433 -24 590 -6 30 -79 83 -98 71 -6 -3 -20 2 -31 13 -20 16 -21 17 -15 1
5 -13 1 -18 -14 -18 -11 0 -22 7 -25 15 -7 17 -44 21 -44 4 0 -6 -9 -8 -21 -4
-14 5 -19 3 -17 -7 1 -7 -1 -14 -5 -15 -4 -2 -22 -19 -40 -39 -32 -37 -63
-129 -46 -140 5 -3 7 -15 4 -27 -4 -15 1 -26 15 -35 20 -12 20 -11 10 8 -13
24 5 35 45 27 19 -3 30 2 43 22 23 32 52 95 52 110 0 8 6 9 19 1 27 -14 31
-13 31 10 0 25 14 26 39 1 19 -19 35 -83 33 -136 -1 -16 3 -40 10 -52 8 -17 8
-26 -2 -38 -7 -8 -17 -12 -22 -8 -7 4 -8 -16 -4 -58 8 -75 8 -74 2 -162 -5
-66 -23 -107 -49 -107 -5 0 -30 18 -56 39 -59 49 -81 112 -81 228 0 75 -2 81
-22 86 -20 5 -21 4 -7 -6 15 -11 15 -22 2 -57 -11 -27 -16 -74 -15 -140 1 -64
1 -65 -16 -41 -16 24 -24 77 -24 173 0 77 -16 65 -23 -18 -10 -99 -2 -159 24
-195 12 -15 21 -34 21 -40 0 -16 63 -73 127 -115 28 -18 50 -39 49 -46 -1 -7
-21 -52 -44 -100 -23 -48 -42 -94 -42 -102 0 -8 -5 -18 -10 -21 -6 -4 -8 -10
-5 -15 3 -4 -2 -10 -10 -14 -8 -3 -15 -11 -15 -19 0 -7 -13 -26 -30 -42 -16
-16 -30 -34 -30 -41 0 -7 -11 -21 -25 -32 -14 -11 -25 -25 -25 -31 0 -5 -8
-15 -19 -20 -10 -6 -24 -25 -32 -43 -7 -18 -22 -41 -34 -50 -19 -16 -19 -17
-2 -18 25 0 16 -25 -9 -25 -10 0 -26 -10 -35 -23 -9 -13 -27 -31 -40 -40 -13
-9 -30 -24 -37 -34 -7 -10 -20 -18 -27 -18 -17 0 -140 -37 -170 -52 -31 -14
-194 -2 -214 16 -9 8 -20 14 -24 14 -5 0 -24 14 -43 31 -18 17 -37 32 -41 34
-13 4 -119 221 -131 268 -11 42 -16 78 -13 89 1 3 4 23 6 45 2 22 7 56 10 75
4 19 8 49 10 65 2 17 8 48 14 70 5 22 11 112 13 201 2 125 0 165 -11 177 -16
20 -81 23 -81 5 0 -6 -9 -21 -20 -33 -19 -20 -22 -49 -20 -205 1 -19 -16 -130
-29 -195 -5 -27 -10 -73 -10 -102 -1 -28 -5 -53 -9 -55 -5 -1 -16 -30 -24 -63
-9 -33 -28 -92 -41 -131 -14 -39 -28 -96 -31 -127 -3 -31 -9 -63 -12 -71 -7
-18 16 -22 32 -7 5 6 18 2 34 -10 l25 -21 -27 6 c-16 4 -28 2 -28 -4 0 -5 5
-10 12 -10 6 0 1 -11 -12 -25 -32 -34 -40 -32 -41 13 -1 26 -4 19 -10 -27 -4
-35 -13 -68 -20 -72 -6 -4 -9 -11 -5 -17 3 -6 -5 -24 -19 -40 -14 -16 -25 -34
-25 -40 0 -6 -3 -12 -7 -14 -5 -1 -26 -29 -47 -60 -21 -32 -53 -70 -70 -85
-61 -54 -115 -93 -128 -93 -8 0 -22 -6 -33 -14 -55 -37 -121 -67 -161 -73 -24
-3 -44 -10 -44 -15 0 -5 -9 -7 -20 -3 -11 3 -49 6 -84 6 -51 0 -78 6 -126 30
-33 16 -65 29 -70 29 -6 0 -10 4 -10 9 0 9 -53 34 -75 35 -5 1 -14 7 -18 14
-4 6 -15 12 -22 12 -8 0 -15 7 -15 15 0 8 -9 15 -19 15 -11 0 -27 10 -35 22
-10 15 -16 17 -16 8 0 -8 -14 2 -31 23 -17 21 -44 44 -60 52 -28 15 -209 193
-209 207 0 4 -10 10 -22 14 -12 3 -38 22 -57 41 -35 34 -35 34 -8 28 22 -6 32
-2 56 24 16 17 37 31 48 30 12 0 7 -5 -14 -15 -18 -8 -33 -19 -33 -25 0 -11
12 -10 80 10 19 5 52 14 72 19 82 21 269 138 332 209 21 24 43 43 47 43 10 0
24 14 144 145 44 48 82 92 84 98 2 6 14 20 27 32 13 12 24 27 24 32 0 5 11 20
25 33 13 12 22 27 19 31 -3 5 0 9 7 9 6 0 9 8 6 20 -3 11 3 30 14 44 10 13 21
35 23 47 3 13 6 26 7 29 2 6 5 27 8 53 0 11 6 15 12 11 8 -4 9 0 4 15 -3 12
-2 21 3 21 15 0 52 114 63 189 4 35 13 69 19 76 6 7 17 49 25 93 7 45 20 93
28 109 13 26 32 100 72 278 9 39 21 161 27 273 10 184 9 212 -7 290 -10 48
-20 102 -23 120 -2 17 -7 32 -11 32 -4 0 -8 17 -9 37 -2 20 -7 42 -11 48 -5 5
-16 36 -26 68 -10 31 -22 57 -28 57 -6 0 -7 3 -4 7 4 3 3 11 -2 17 -4 6 -14
34 -20 61 -7 28 -28 79 -47 115 -19 35 -34 70 -34 76 0 23 -128 183 -146 184
-7 0 -15 11 -18 25 -9 35 -51 71 -126 108 -36 18 -67 35 -70 38 -3 3 -36 20
-75 38 -54 25 -83 32 -128 32 -50 0 -57 2 -47 15 11 12 6 14 -26 13 -22 0 -46
-4 -54 -8z m-1420 -1860 c13 -25 13 -64 0 -77 -14 -14 -16 -80 -2 -97 6 -7 9
-17 5 -20 -3 -4 -1 -12 5 -19 15 -19 42 -170 42 -237 0 -31 6 -87 14 -126 8
-38 20 -103 26 -143 7 -39 15 -70 20 -67 7 4 16 -87 25 -260 2 -33 11 -95 20
-139 9 -43 15 -89 12 -102 -4 -24 7 -33 18 -14 10 17 26 0 20 -20 -3 -11 -2
-27 3 -37 5 -10 6 -27 1 -38 -4 -11 -8 -15 -9 -10 -4 22 -7 41 -8 63 -1 12 -6
22 -12 22 -6 0 -7 -23 -4 -57 11 -113 6 -617 -8 -758 -12 -127 -35 -232 -57
-263 -10 -15 -22 -51 -26 -79 -4 -29 -11 -53 -16 -53 -12 0 -40 -70 -33 -81 3
-5 1 -9 -5 -9 -5 0 -22 -27 -38 -60 -30 -64 -38 -70 -59 -42 -8 10 -13 12 -14
5 0 -18 -40 -16 -40 2 0 8 -9 29 -20 47 -11 18 -22 52 -26 75 -3 24 -11 43
-16 43 -5 0 -6 -5 -2 -11 4 -7 -1 -7 -16 1 -20 11 -20 13 -6 29 20 22 20 32 1
25 -8 -4 -15 -1 -15 5 0 6 7 11 15 11 8 0 15 9 15 20 0 11 -4 20 -10 20 -5 0
-10 -7 -10 -15 0 -8 -6 -15 -13 -15 -8 0 -14 15 -16 42 -1 22 -6 48 -10 57 -5
9 -11 116 -14 237 -4 126 -11 234 -18 250 -6 16 -13 67 -15 114 -5 107 -4 99
-5 204 0 49 -2 94 -5 98 -3 5 -1 14 4 21 10 12 22 121 22 185 -1 18 4 59 9 90
6 31 13 75 16 97 10 71 17 110 24 120 3 6 6 87 7 180 2 191 7 248 29 311 8 25
15 61 15 82 0 20 7 50 15 66 8 15 15 33 15 39 0 5 9 28 19 51 11 23 29 64 41
91 11 28 30 67 40 87 11 20 20 46 20 57 0 26 16 27 30 2z"/>
<path d="M1006 10568 c-16 -53 -23 -99 -15 -104 5 -3 7 -10 4 -15 -4 -5 -1 -9
4 -9 13 0 14 -40 1 -60 -6 -10 -4 -20 7 -32 20 -22 51 -23 80 -3 17 12 27 13
47 4 20 -9 29 -9 41 1 14 11 18 11 25 1 6 -11 10 -9 19 7 9 17 7 23 -14 36
-14 9 -25 23 -25 31 0 12 -7 14 -27 8 -37 -9 -85 -38 -76 -46 3 -4 4 -7 0 -7
-11 0 -35 60 -26 66 12 7 11 41 -1 49 -6 4 -17 1 -25 -5 -12 -10 -13 -8 -10
10 2 13 14 29 25 37 11 8 17 19 14 25 -4 6 -10 5 -15 -3 -7 -11 -9 -10 -9 4 0
20 -19 23 -24 5z"/>
<path d="M4559 10203 c-1 -5 -1 -11 0 -15 0 -4 -12 -5 -28 -2 -23 5 -32 2 -40
-14 -14 -26 -14 -62 0 -62 6 0 22 -14 36 -31 14 -16 31 -28 38 -25 17 6 47
-27 40 -46 -8 -19 40 -62 60 -54 15 5 14 10 -8 35 -16 20 -27 48 -31 85 -8 58
-40 136 -56 136 -6 0 -11 -3 -11 -7z"/>
</g>
</svg>
